<?xml version="1.0" encoding="UTF-8"?>
<svg id="_Слой_2" data-name="Слой 2" xmlns="http://www.w3.org/2000/svg" viewBox="0 0 52.38 50.01">
  <defs>
    <style>
      .cls-1 {
        fill: #30221d;
      }
    </style>
  </defs>
  <g id="_Слой_1-2" data-name="Слой 1">
    <path class="cls-1" d="M25.13,41.65l-12.82,8.05c-1.53.96-3.44-.43-3-2.18l3.69-14.68c.19-.74-.07-1.53-.66-2.02L.72,21.11c-1.38-1.16-.65-3.41,1.15-3.53l15.1-1.02c.77-.05,1.43-.54,1.72-1.25L24.33,1.25c.67-1.67,3.04-1.67,3.71,0l5.64,14.05c.29.71.95,1.2,1.72,1.25l15.1,1.02c1.8.12,2.53,2.37,1.15,3.53l-11.62,9.71c-.59.49-.84,1.28-.66,2.02l3.69,14.68c.44,1.75-1.48,3.14-3,2.18l-12.82-8.05c-.65-.41-1.48-.41-2.13,0Z"/>
  </g>
</svg>